<?xml version="1.0" encoding="UTF-8"?>
<svg version="1.1" xmlns="http://www.w3.org/2000/svg" width="735" height="573">
<path d="M0 0 C1.18165237 0.00080566 2.36330475 0.00161133 3.58076477 0.00244141 C5.49794563 0.02250244 5.49794563 0.02250244 7.45385742 0.04296875 C8.76714523 0.05376465 10.08043304 0.06456055 11.43351746 0.07568359 C14.21526888 0.1016474 16.99674108 0.1370154 19.77832031 0.17724609 C23.33254119 0.22664831 26.88586763 0.23923956 30.44038868 0.24290466 C33.84112011 0.25440877 37.24094312 0.30780225 40.64135742 0.35546875 C42.54942924 0.35123901 42.54942924 0.35123901 44.49604797 0.34692383 C54.34399837 0.56207857 54.34399837 0.56207857 58.09716797 4.16015625 C60.24682617 7.23046875 60.24682617 7.23046875 60.24682617 9.23046875 C60.90682617 9.23046875 61.56682617 9.23046875 62.24682617 9.23046875 C62.24682617 9.89046875 62.24682617 10.55046875 62.24682617 11.23046875 C62.90682617 11.23046875 63.56682617 11.23046875 64.24682617 11.23046875 C64.24682617 11.89046875 64.24682617 12.55046875 64.24682617 13.23046875 C64.8367334 13.48989258 65.42664063 13.74931641 66.03442383 14.01660156 C68.40815706 15.31898532 69.82333032 16.66011177 71.64526367 18.65234375 C72.28326904 19.34142822 72.92127441 20.0305127 73.57861328 20.74047852 C74.25287354 21.47967529 74.92713379 22.21887207 75.62182617 22.98046875 C79.77318409 27.49498066 83.9125495 31.97757776 88.37573242 36.1875 C89.33890381 37.10354004 89.33890381 37.10354004 90.3215332 38.03808594 C91.53108497 39.17756931 92.75415253 40.30293487 93.99243164 41.41113281 C94.53915527 41.93030273 95.08587891 42.44947266 95.64916992 42.984375 C96.12862061 43.42080322 96.60807129 43.85723145 97.10205078 44.30688477 C100.23845526 49.57703424 99.3948504 57.3579278 99.37963867 63.33984375 C99.3805954 64.18790588 99.38155212 65.03596802 99.38253784 65.909729 C99.38321448 67.69470291 99.38139643 69.47967934 99.37719727 71.26464844 C99.37186855 73.95904238 99.37714612 76.6532676 99.38354492 79.34765625 C99.38288353 81.09505244 99.38160111 82.84244853 99.37963867 84.58984375 C99.3816629 85.37776306 99.38368713 86.16568237 99.38577271 86.97747803 C99.37935895 88.55255768 99.35226293 90.1276775 99.30537415 91.70207214 C99.26354287 93.50855751 99.28733713 95.31704191 99.35466003 97.12275696 C99.32130859 104.998723 96.97901126 108.75511138 91.47633362 114.27287292 C90.52532272 115.17024673 89.57431183 116.06762054 88.59448242 116.9921875 C87.6118841 117.95676617 86.63164962 118.92375813 85.65367126 119.89302063 C83.09225887 122.41838522 80.49916541 124.90856419 77.89801025 127.3928833 C75.24876426 129.93607396 72.63381846 132.51405253 70.0144043 135.08789062 C66.19152223 138.83167554 62.35775671 142.56349333 58.49707031 146.26831055 C57.72287247 147.01155075 56.94867462 147.75479095 56.15101624 148.52055359 C52.9928641 151.3564954 51.04058636 151.35332471 46.87915039 151.34399414 C45.75813934 151.34391861 44.6371283 151.34384308 43.48214722 151.34376526 C42.26753815 151.33860397 41.05292908 151.33344269 39.80151367 151.328125 C37.94129074 151.32600258 37.94129074 151.32600258 36.04348755 151.32383728 C32.74564484 151.31917971 29.44785071 151.31019314 26.15002441 151.2991333 C22.78516231 151.28890606 19.42029309 151.28433684 16.05541992 151.27929688 C9.45253624 151.26825144 2.84968518 151.25150122 -3.75317383 151.23046875 C-3.75095322 151.9298204 -3.7487326 152.62917206 -3.7464447 153.34971619 C-3.72644103 159.92751796 -3.71119931 166.50531129 -3.70136166 173.08313656 C-3.69613408 176.46518688 -3.68903872 179.84721215 -3.67773438 183.22924805 C-3.66483116 187.11376652 -3.65994459 190.99827472 -3.65551758 194.8828125 C-3.65035629 196.10258286 -3.64519501 197.32235321 -3.63987732 198.5790863 C-3.63980179 199.70017288 -3.63972626 200.82125946 -3.63964844 201.97631836 C-3.63742783 202.96893173 -3.63520721 203.9615451 -3.63291931 204.98423767 C-3.75317383 207.23046875 -3.75317383 207.23046875 -4.75317383 208.23046875 C-6.22671731 208.32350893 -7.70467974 208.3479314 -9.18115234 208.34399414 C-10.12205215 208.34391861 -11.06295197 208.34384308 -12.03236389 208.34376526 C-13.05527023 208.33860397 -14.07817657 208.33344269 -15.13208008 208.328125 C-16.69477882 208.32600258 -16.69477882 208.32600258 -18.28904724 208.32383728 C-21.63128477 208.31821955 -24.9734564 208.30566405 -28.31567383 208.29296875 C-30.57543849 208.28795603 -32.83520419 208.28339273 -35.0949707 208.27929688 C-40.64772773 208.26824436 -46.20044608 208.25148899 -51.75317383 208.23046875 C-53.14995673 205.43690295 -52.88236223 203.14519076 -52.8868866 200.01858521 C-52.88915215 199.37449735 -52.89141771 198.73040949 -52.89375192 198.06680381 C-52.90010479 195.8988473 -52.89926173 193.7309531 -52.8984375 191.56298828 C-52.90142821 190.01255207 -52.90483053 188.46211661 -52.90861511 186.91168213 C-52.91746875 182.69265431 -52.91979381 178.47364675 -52.9204309 174.25461054 C-52.92137904 170.73566023 -52.92505629 167.21671467 -52.92860299 163.69776618 C-52.9367529 155.39665288 -52.93918676 147.09555043 -52.93847656 138.79443359 C-52.93787576 130.22503548 -52.94842679 121.65570032 -52.96422023 113.08631814 C-52.9772869 105.73510539 -52.98266082 98.38391325 -52.98202115 91.03268898 C-52.98176589 86.63950826 -52.98463264 82.24638344 -52.9951992 77.85321426 C-53.00486541 73.72135454 -53.00496956 69.58960432 -52.99768257 65.45774078 C-52.99663485 63.94038865 -52.99901068 62.42302975 -53.00504303 60.90568924 C-53.01273975 58.83576976 -53.00813381 56.76623064 -53.00041199 54.69631958 C-53.00095675 53.53745806 -53.00150152 52.37859653 -53.0020628 51.184618 C-52.69904173 47.58795611 -51.90771715 45.36592872 -49.33520508 42.8359375 C-48.75125977 42.36800781 -48.16731445 41.90007812 -47.56567383 41.41796875 C-43.1816994 37.71093155 -39.12396314 33.72329833 -35.06567383 29.66796875 C-34.42412354 29.03076904 -33.78257324 28.39356934 -33.12158203 27.73706055 C-29.44490279 24.04987788 -26.0418299 20.26627924 -22.75317383 16.23046875 C-21.10949242 14.54112953 -19.43888623 12.87786951 -17.75317383 11.23046875 C-17.02356445 10.49054688 -16.29395508 9.750625 -15.54223633 8.98828125 C-14.7455957 8.18132812 -13.94895508 7.374375 -13.12817383 6.54296875 C-12.3727832 5.77597656 -11.61739258 5.00898437 -10.83911133 4.21875 C-7.12929768 0.68261676 -5.0190804 -0.01980804 0 0 Z M-3.75317383 48.23046875 C-4.54755906 51.69969024 -4.85589607 54.8332149 -4.77490234 58.38793945 C-4.75447876 59.40247192 -4.73405518 60.41700439 -4.7130127 61.46228027 C-4.68630493 62.51629028 -4.65959717 63.57030029 -4.63208008 64.65625 C-4.61141479 65.63412476 -4.59074951 66.61199951 -4.56945801 67.61950684 C-4.49089136 71.26079586 -4.40271244 74.90187238 -4.31567383 78.54296875 C-4.13004883 86.68984375 -3.94442383 94.83671875 -3.75317383 103.23046875 C14.06682617 103.23046875 31.88682617 103.23046875 50.24682617 103.23046875 C51.0810973 99.89338422 51.3731645 97.56880206 51.3762207 94.20239258 C51.38094894 92.70613091 51.38094894 92.70613091 51.38577271 91.17964172 C51.38374847 90.10973495 51.38172424 89.03982819 51.37963867 87.9375 C51.3805954 86.83572922 51.38155212 85.73395844 51.38253784 84.59880066 C51.38321785 82.27297915 51.38137606 79.94715574 51.37719727 77.62133789 C51.37183124 74.04634385 51.37715618 70.47147458 51.38354492 66.89648438 C51.38288441 64.63932264 51.3816038 62.38216098 51.37963867 60.125 C51.3816629 59.04902054 51.38368713 57.97304108 51.38577271 56.86445618 C51.38262054 55.87640488 51.37946838 54.88835358 51.3762207 53.87036133 C51.37542511 52.99640213 51.37462952 52.12244293 51.37380981 51.22200012 C51.46700867 49.23042501 51.46700867 49.23042501 50.24682617 48.23046875 C48.55880632 48.13693712 46.8668741 48.11302084 45.17626953 48.11694336 C44.09522446 48.11701889 43.01417938 48.11709442 41.90037537 48.11717224 C40.72435257 48.12233353 39.54832977 48.12749481 38.33666992 48.1328125 C37.13949844 48.13422745 35.94232697 48.1356424 34.70887756 48.13710022 C30.86733551 48.14271896 27.02585075 48.15527464 23.18432617 48.16796875 C20.5873218 48.17298134 17.99031652 48.17754466 15.39331055 48.18164062 C9.01112939 48.19269448 2.62898187 48.20945083 -3.75317383 48.23046875 Z " fill="#CFCECF" transform="translate(348.753173828125,89.76953125)"/>
<path d="M0 0 C1.18165237 0.00080566 2.36330475 0.00161133 3.58076477 0.00244141 C5.49794563 0.02250244 5.49794563 0.02250244 7.45385742 0.04296875 C8.76714523 0.05376465 10.08043304 0.06456055 11.43351746 0.07568359 C14.21526888 0.1016474 16.99674108 0.1370154 19.77832031 0.17724609 C23.33254119 0.22664831 26.88586763 0.23923956 30.44038868 0.24290466 C33.84112011 0.25440877 37.24094312 0.30780225 40.64135742 0.35546875 C42.54942924 0.35123901 42.54942924 0.35123901 44.49604797 0.34692383 C54.34399837 0.56207857 54.34399837 0.56207857 58.09716797 4.16015625 C60.24682617 7.23046875 60.24682617 7.23046875 60.24682617 9.23046875 C60.90682617 9.23046875 61.56682617 9.23046875 62.24682617 9.23046875 C62.24682617 9.89046875 62.24682617 10.55046875 62.24682617 11.23046875 C62.90682617 11.23046875 63.56682617 11.23046875 64.24682617 11.23046875 C64.24682617 11.89046875 64.24682617 12.55046875 64.24682617 13.23046875 C64.8367334 13.48989258 65.42664063 13.74931641 66.03442383 14.01660156 C68.40815706 15.31898532 69.82333032 16.66011177 71.64526367 18.65234375 C72.28326904 19.34142822 72.92127441 20.0305127 73.57861328 20.74047852 C74.25287354 21.47967529 74.92713379 22.21887207 75.62182617 22.98046875 C79.77318409 27.49498066 83.9125495 31.97757776 88.37573242 36.1875 C89.33890381 37.10354004 89.33890381 37.10354004 90.3215332 38.03808594 C91.53108497 39.17756931 92.75415253 40.30293487 93.99243164 41.41113281 C94.53915527 41.93030273 95.08587891 42.44947266 95.64916992 42.984375 C96.12862061 43.42080322 96.60807129 43.85723145 97.10205078 44.30688477 C100.23845526 49.57703424 99.3948504 57.3579278 99.37963867 63.33984375 C99.3805954 64.18790588 99.38155212 65.03596802 99.38253784 65.909729 C99.38321448 67.69470291 99.38139643 69.47967934 99.37719727 71.26464844 C99.37186855 73.95904238 99.37714612 76.6532676 99.38354492 79.34765625 C99.38288353 81.09505244 99.38160111 82.84244853 99.37963867 84.58984375 C99.3816629 85.37776306 99.38368713 86.16568237 99.38577271 86.97747803 C99.37935895 88.55255768 99.35226293 90.1276775 99.30537415 91.70207214 C99.26354287 93.50855751 99.28733713 95.31704191 99.35466003 97.12275696 C99.32130859 104.998723 96.97901126 108.75511138 91.47633362 114.27287292 C90.52532272 115.17024673 89.57431183 116.06762054 88.59448242 116.9921875 C87.6118841 117.95676617 86.63164962 118.92375813 85.65367126 119.89302063 C83.09225887 122.41838522 80.49916541 124.90856419 77.89801025 127.3928833 C75.24876426 129.93607396 72.63381846 132.51405253 70.0144043 135.08789062 C66.19152223 138.83167554 62.35775671 142.56349333 58.49707031 146.26831055 C57.72287247 147.01155075 56.94867462 147.75479095 56.15101624 148.52055359 C52.9928641 151.3564954 51.04058636 151.35332471 46.87915039 151.34399414 C45.75813934 151.34391861 44.6371283 151.34384308 43.48214722 151.34376526 C42.26753815 151.33860397 41.05292908 151.33344269 39.80151367 151.328125 C37.94129074 151.32600258 37.94129074 151.32600258 36.04348755 151.32383728 C32.74564484 151.31917971 29.44785071 151.31019314 26.15002441 151.2991333 C22.78516231 151.28890606 19.42029309 151.28433684 16.05541992 151.27929688 C9.45253624 151.26825144 2.84968518 151.25150122 -3.75317383 151.23046875 C-3.75095322 151.9298204 -3.7487326 152.62917206 -3.7464447 153.34971619 C-3.72644103 159.92751796 -3.71119931 166.50531129 -3.70136166 173.08313656 C-3.69613408 176.46518688 -3.68903872 179.84721215 -3.67773438 183.22924805 C-3.66483116 187.11376652 -3.65994459 190.99827472 -3.65551758 194.8828125 C-3.65035629 196.10258286 -3.64519501 197.32235321 -3.63987732 198.5790863 C-3.63980179 199.70017288 -3.63972626 200.82125946 -3.63964844 201.97631836 C-3.63742783 202.96893173 -3.63520721 203.9615451 -3.63291931 204.98423767 C-3.75317383 207.23046875 -3.75317383 207.23046875 -4.75317383 208.23046875 C-6.22671731 208.32350893 -7.70467974 208.3479314 -9.18115234 208.34399414 C-10.12205215 208.34391861 -11.06295197 208.34384308 -12.03236389 208.34376526 C-13.05527023 208.33860397 -14.07817657 208.33344269 -15.13208008 208.328125 C-16.69477882 208.32600258 -16.69477882 208.32600258 -18.28904724 208.32383728 C-21.63128477 208.31821955 -24.9734564 208.30566405 -28.31567383 208.29296875 C-30.57543849 208.28795603 -32.83520419 208.28339273 -35.0949707 208.27929688 C-40.64772773 208.26824436 -46.20044608 208.25148899 -51.75317383 208.23046875 C-52.08317383 207.24046875 -52.41317383 206.25046875 -52.75317383 205.23046875 C-52.09317383 205.23046875 -51.43317383 205.23046875 -50.75317383 205.23046875 C-50.75317383 200.28046875 -50.75317383 195.33046875 -50.75317383 190.23046875 C-50.42317383 190.23046875 -50.09317383 190.23046875 -49.75317383 190.23046875 C-49.75317383 195.51046875 -49.75317383 200.79046875 -49.75317383 206.23046875 C-35.56317383 206.23046875 -21.37317383 206.23046875 -6.75317383 206.23046875 C-6.75317383 187.75046875 -6.75317383 169.27046875 -6.75317383 150.23046875 C-21.27317383 150.23046875 -35.79317383 150.23046875 -50.75317383 150.23046875 C-50.75317383 135.05046875 -50.75317383 119.87046875 -50.75317383 104.23046875 C-43.20442383 104.18921875 -35.65567383 104.14796875 -27.87817383 104.10546875 C-25.4948584 104.08726074 -23.11154297 104.06905273 -20.65600586 104.05029297 C-18.77433498 104.04445368 -16.89266158 104.03935679 -15.01098633 104.03515625 C-13.53650024 104.01980835 -13.53650024 104.01980835 -12.03222656 104.00415039 C-11.09854248 104.00390869 -10.1648584 104.00366699 -9.20288086 104.00341797 C-8.39013702 103.99897675 -7.57739319 103.99453552 -6.74002075 103.98995972 C-4.75317383 104.23046875 -4.75317383 104.23046875 -2.75317383 106.23046875 C-3.41317383 106.23046875 -4.07317383 106.23046875 -4.75317383 106.23046875 C-4.75317383 120.42046875 -4.75317383 134.61046875 -4.75317383 149.23046875 C13.72682617 148.90046875 32.20682617 148.57046875 51.24682617 148.23046875 C51.57682617 133.05046875 51.90682617 117.87046875 52.24682617 102.23046875 C51.58682617 102.23046875 50.92682617 102.23046875 50.24682617 102.23046875 C50.74182617 100.74546875 50.74182617 100.74546875 51.24682617 99.23046875 C51.33460113 97.89765604 51.3688267 96.56087269 51.36708069 95.22517395 C51.36845535 94.41329117 51.36983002 93.60140839 51.37124634 92.7649231 C51.36765106 91.87803802 51.36405579 90.99115295 51.36035156 90.07739258 C51.36049759 89.14061172 51.36064362 88.20383087 51.36079407 87.23866272 C51.36009668 84.1382517 51.35231235 81.03790054 51.34448242 77.9375 C51.34261763 75.7894443 51.34119401 73.64138818 51.3401947 71.49333191 C51.33637437 65.83638334 51.32654819 60.1794604 51.31549072 54.52252197 C51.30346893 47.7368752 51.29887206 40.95121986 51.29303741 34.16556549 C51.2833362 23.85384875 51.26417623 13.54218825 51.24682617 3.23046875 C32.76682617 3.23046875 14.28682617 3.23046875 -4.75317383 3.23046875 C-5.08317383 17.75046875 -5.41317383 32.27046875 -5.75317383 47.23046875 C-20.27317383 47.23046875 -34.79317383 47.23046875 -49.75317383 47.23046875 C-50.08317383 48.22046875 -50.41317383 49.21046875 -50.75317383 50.23046875 C-51.50708008 47.9765625 -51.50708008 47.9765625 -51.75317383 45.23046875 C-50.15551758 43.265625 -50.15551758 43.265625 -47.69067383 41.29296875 C-43.05958948 37.39448532 -38.71320368 33.3324688 -34.44067383 29.04296875 C-33.85471436 28.4610376 -33.26875488 27.87910645 -32.66503906 27.27954102 C-29.14181188 23.74727348 -25.91039573 20.09237814 -22.75317383 16.23046875 C-21.10949242 14.54112953 -19.43888623 12.87786951 -17.75317383 11.23046875 C-17.02356445 10.49054688 -16.29395508 9.750625 -15.54223633 8.98828125 C-14.7455957 8.18132812 -13.94895508 7.374375 -13.12817383 6.54296875 C-12.3727832 5.77597656 -11.61739258 5.00898437 -10.83911133 4.21875 C-7.12929768 0.68261676 -5.0190804 -0.01980804 0 0 Z " fill="#F3F2F2" transform="translate(348.753173828125,89.76953125)"/>
<path d="M0 0 C2.03704353 -0.0096611 4.07305876 -0.04064896 6.10986328 -0.07226562 C7.39763672 -0.07742188 8.68541016 -0.08257812 10.01220703 -0.08789062 C11.7857959 -0.10190918 11.7857959 -0.10190918 13.59521484 -0.11621094 C17.18759747 0.28221497 18.97703076 1.02023475 21.80908203 3.24023438 C23.25610352 5.27954102 23.25610352 5.27954102 24.43017578 7.65039062 C24.88416748 8.54612793 25.33815918 9.44186523 25.8059082 10.36474609 C26.28133057 11.33428223 26.75675293 12.30381836 27.24658203 13.30273438 C28.29158061 15.37009018 29.33853845 17.43645651 30.38720703 19.50195312 C30.93699219 20.59169434 31.48677734 21.68143555 32.05322266 22.80419922 C35.11162958 28.78918519 38.30482199 34.70059522 41.49658203 40.61523438 C42.10880615 41.75613525 42.72103027 42.89703613 43.35180664 44.07250977 C43.91907471 45.12559326 44.48634277 46.17867676 45.07080078 47.26367188 C45.57571045 48.20130371 46.08062012 49.13893555 46.60083008 50.10498047 C47.63602451 52.15623541 47.63602451 52.15623541 48.80908203 53.24023438 C49.13908203 36.08023438 49.46908203 18.92023438 49.80908203 1.24023438 C52.92124662 -0.31584792 56.20984783 0.09700605 59.62158203 0.11523438 C60.33378906 0.11136719 61.04599609 0.1075 61.77978516 0.10351562 C65.67108757 0.11071507 68.95639567 0.4696971 72.80908203 1.24023438 C72.80908203 30.61023438 72.80908203 59.98023438 72.80908203 90.24023438 C61.91908203 90.24023438 51.02908203 90.24023438 39.80908203 90.24023438 C28.85734383 69.28320448 28.85734383 69.28320448 23.74267578 59.36132812 C23.40439255 58.70550247 23.06610931 58.04967682 22.71757507 57.37397766 C21.04660801 54.13429865 19.37747305 50.89369768 17.71118164 47.65161133 C17.09545489 46.45715417 16.47965443 45.262735 15.86376953 44.06835938 C15.32220215 43.01551758 14.78063477 41.96267578 14.22265625 40.87792969 C12.80189622 38.12557292 12.80189622 38.12557292 10.80908203 35.24023438 C10.81130264 35.91452988 10.81352325 36.58882538 10.81581116 37.28355408 C10.83786132 44.27456128 10.8529875 51.26555868 10.86401367 58.2565918 C10.8690558 60.86890056 10.87588928 63.48120649 10.88452148 66.09350586 C10.89659239 69.83903706 10.90231139 73.58453109 10.90673828 77.33007812 C10.91189957 78.50610092 10.91706085 79.68212372 10.92237854 80.89378357 C10.92249184 82.51535118 10.92249184 82.51535118 10.92260742 84.16967773 C10.92482803 85.12676132 10.92704865 86.08384491 10.92933655 87.06993103 C10.80908203 89.24023438 10.80908203 89.24023438 9.80908203 90.24023438 C8.17435321 90.3272378 6.53594148 90.347245 4.89892578 90.33789062 C3.90957031 90.33466797 2.92021484 90.33144531 1.90087891 90.328125 C0.85996094 90.31974609 -0.18095703 90.31136719 -1.25341797 90.30273438 C-2.29820312 90.29822266 -3.34298828 90.29371094 -4.41943359 90.2890625 C-7.00998457 90.2772335 -9.60042355 90.26075127 -12.19091797 90.24023438 C-13.44810187 86.46868266 -13.33035548 82.94944956 -13.3203125 79.02099609 C-13.32206482 78.18335724 -13.32381714 77.34571838 -13.32562256 76.48269653 C-13.33002692 73.71175063 -13.32710858 70.94086844 -13.32373047 68.16992188 C-13.32440379 66.24846382 -13.32537405 64.32700585 -13.32662964 62.4055481 C-13.32810459 58.37891834 -13.32595808 54.35231077 -13.32128906 50.32568359 C-13.31558423 45.15242186 -13.31887683 39.97921192 -13.32486153 34.80595207 C-13.32846607 30.83928025 -13.32732918 26.87262082 -13.32473373 22.90594864 C-13.32406457 20.9976717 -13.32489254 19.08939366 -13.32721329 17.18111801 C-13.32973889 14.52094264 -13.32590089 11.86085257 -13.3203125 9.20068359 C-13.32233673 8.40482849 -13.32436096 7.60897339 -13.32644653 6.78900146 C-13.29044181 -2.4126497 -8.01083266 0.02302515 0 0 Z " fill="#FDFDFC" transform="translate(385.19091796875,320.759765625)"/>
<path d="M0 0 C0.67474365 0.00008057 1.3494873 0.00016113 2.04467773 0.00024414 C4.09249942 -0.00193311 6.1397744 -0.02005866 8.1875 -0.0390625 C9.47849609 -0.04099609 10.76949219 -0.04292969 12.09960938 -0.04492188 C13.28723877 -0.04903076 14.47486816 -0.05313965 15.69848633 -0.05737305 C18.79982064 0.18562464 20.21070703 0.55986425 22.79882812 2.18554688 C24.03671265 3.9152832 24.03671265 3.9152832 25.08544922 6.01757812 C25.48621674 6.80600098 25.88698425 7.59442383 26.29989624 8.40673828 C26.92971909 9.68943604 26.92971909 9.68943604 27.57226562 10.99804688 C28.24160629 12.32328369 28.24160629 12.32328369 28.92446899 13.67529297 C30.35216445 16.50655803 31.7636756 19.34550931 33.17382812 22.18554688 C34.57955703 24.99555449 35.98870958 27.80377639 37.40176392 30.61010742 C38.27934852 32.35521869 39.15237592 34.10263252 40.01986694 35.8527832 C42.98828933 41.78595609 46.10214977 47.66802363 49.79882812 53.18554688 C50.12882812 53.18554688 50.45882812 53.18554688 50.79882812 53.18554688 C50.79216629 52.55105621 50.78550446 51.91656555 50.77864075 51.2628479 C50.71242722 44.67723645 50.6670859 38.09171906 50.6340332 31.50585938 C50.61891825 29.04585939 50.59842586 26.58588647 50.57250977 24.12597656 C50.53624583 20.59628635 50.51912898 17.06695144 50.50585938 13.53710938 C50.49037552 12.4318692 50.47489166 11.32662903 50.4589386 10.18789673 C50.45871201 9.16698944 50.45848541 8.14608215 50.45825195 7.09423828 C50.45159012 6.19266998 50.44492828 5.29110168 50.43806458 4.36221313 C50.55711655 3.64391327 50.67616852 2.9256134 50.79882812 2.18554688 C53.84856497 0.15238898 54.4883968 -0.06930392 57.92382812 -0.08007812 C58.71273437 -0.08265625 59.50164062 -0.08523438 60.31445312 -0.08789062 C61.13429688 -0.08015625 61.95414062 -0.07242187 62.79882812 -0.06445312 C64.02859375 -0.07605469 64.02859375 -0.07605469 65.28320312 -0.08789062 C66.4665625 -0.08402344 66.4665625 -0.08402344 67.67382812 -0.08007812 C68.393125 -0.07782227 69.11242187 -0.07556641 69.85351562 -0.07324219 C71.79882812 0.18554688 71.79882812 0.18554688 74.79882812 2.18554688 C75.09036043 4.99116396 75.18741811 7.5757729 75.15527344 10.38305664 C75.15731781 11.23030304 75.15936218 12.07754944 75.16146851 12.95046997 C75.16448415 15.75951503 75.14597746 18.56797755 75.12695312 21.37695312 C75.12389703 23.32225906 75.12201977 25.26756717 75.12127686 27.21287537 C75.11666901 31.29263665 75.10222368 35.37220107 75.08007812 39.4519043 C75.05177662 44.69358672 75.04086537 49.93511401 75.03639603 55.17686558 C75.03224852 59.19416368 75.02243698 63.2114301 75.01052094 67.22871208 C75.00480542 69.16210614 75.00005098 71.09550328 74.99625397 73.02890205 C74.98941435 75.72513366 74.9757935 78.42123977 74.95996094 81.11743164 C74.95884308 81.92420853 74.95772522 82.73098541 74.95657349 83.56221008 C74.91351461 89.07086039 74.91351461 89.07086039 73.79882812 90.18554688 C71.42314293 90.27394358 69.07674139 90.30084993 66.70117188 90.28320312 C65.63788414 90.2810807 65.63788414 90.2810807 64.55311584 90.27891541 C62.280811 90.2733013 60.00860337 90.2607465 57.73632812 90.24804688 C56.19922017 90.24303369 54.66211067 90.23847047 53.125 90.234375 C49.34957171 90.2233273 45.57421642 90.20605329 41.79882812 90.18554688 C35.33264082 78.9032314 29.25487318 67.46348192 23.36132812 55.87304688 C22.1598112 53.51417403 20.95732412 51.1558107 19.75267029 48.79853821 C19.01282613 47.35046122 18.27482066 45.90144285 17.53895569 44.45133972 C16.07500967 41.5830793 14.58756136 38.86864672 12.79882812 36.18554688 C12.46882813 54.00554687 12.13882812 71.82554687 11.79882812 90.18554688 C4.53882813 90.18554688 -2.72117187 90.18554688 -10.20117188 90.18554688 C-11.80242694 86.98303674 -11.3394133 83.50520469 -11.33056641 79.98803711 C-11.33231873 79.14079071 -11.33407104 78.29354431 -11.33587646 77.42062378 C-11.34028853 74.61177541 -11.33735951 71.80298967 -11.33398438 68.99414062 C-11.33465754 67.04883309 -11.33562766 65.10352563 -11.33688354 63.15821838 C-11.33835959 59.07853394 -11.33620871 54.99887136 -11.33154297 50.91918945 C-11.32584196 45.67751802 -11.32912763 40.43589774 -11.33511543 35.19422817 C-11.33872033 31.17694205 -11.33758286 27.15966815 -11.33498764 23.14238167 C-11.33431837 21.20898495 -11.3351468 19.27558714 -11.33746719 17.3421917 C-11.33999296 14.64598502 -11.33615439 11.94986249 -11.33056641 9.25366211 C-11.33259064 8.44688522 -11.33461487 7.64010834 -11.33670044 6.80888367 C-11.3032459 -1.85799212 -7.81086805 0.03520171 0 0 Z " fill="#FDFCFC" transform="translate(281.201171875,320.814453125)"/>
<path d="M0 0 C0.83877686 -0.00217529 1.67755371 -0.00435059 2.54174805 -0.0065918 C3.44836182 -0.00183838 4.35497559 0.00291504 5.2890625 0.0078125 C6.22210205 0.01192139 7.1551416 0.01603027 8.11645508 0.02026367 C45.81411307 0.31509861 45.81411307 0.31509861 59.1796875 12.13671875 C68.98616689 22.28824093 70.38970535 34.85520313 70.20703125 48.38671875 C69.89641016 56.18378114 67.9064495 64.3740471 63.9140625 71.1328125 C62.9240625 71.6278125 62.9240625 71.6278125 61.9140625 72.1328125 C61.4190625 73.6178125 61.4190625 73.6178125 60.9140625 75.1328125 C60.2540625 75.1328125 59.5940625 75.1328125 58.9140625 75.1328125 C58.4190625 76.6178125 58.4190625 76.6178125 57.9140625 78.1328125 C56.0390625 80.3203125 56.0390625 80.3203125 53.9140625 82.1328125 C52.9240625 82.1328125 51.9340625 82.1328125 50.9140625 82.1328125 C50.9140625 82.7928125 50.9140625 83.4528125 50.9140625 84.1328125 C48.9989046 84.94886249 47.08187416 85.76051882 45.1640625 86.5703125 C44.09671875 87.02277344 43.029375 87.47523438 41.9296875 87.94140625 C26.32828734 94.10517186 13.03873022 90.1328125 -6.0859375 90.1328125 C-6.0859375 60.7628125 -6.0859375 31.3928125 -6.0859375 1.1328125 C-3.80424422 -0.00803414 -2.5343681 0.00385246 0 0 Z M18.9140625 22.1328125 C18.82102232 23.60635598 18.79659985 25.08431841 18.80053711 26.56079102 C18.80061264 27.50169083 18.80068817 28.44259064 18.80076599 29.41200256 C18.80592728 30.43490891 18.81108856 31.45781525 18.81640625 32.51171875 C18.8178212 33.55351791 18.81923615 34.59531708 18.82069397 35.66868591 C18.8263117 39.01092344 18.8388672 42.35309507 18.8515625 45.6953125 C18.85657522 47.95507716 18.86113852 50.21484287 18.86523438 52.47460938 C18.87628689 58.02736641 18.89304226 63.58008475 18.9140625 69.1328125 C20.32538196 69.16349336 21.73689909 69.18514544 23.1484375 69.203125 C24.32744629 69.22270264 24.32744629 69.22270264 25.53027344 69.24267578 C30.98841727 68.99112265 34.76491734 67.20534798 38.7265625 63.5078125 C44.03011272 56.19751354 44.74928144 47.91977337 43.9140625 39.1328125 C42.77465863 32.77334904 41.19753111 28.18756748 35.9140625 24.1328125 C32.19973807 21.627803 22.7911597 18.2557153 18.9140625 22.1328125 Z " fill="#FDFCFC" transform="translate(549.0859375,320.8671875)"/>
<path d="M0 0 C1.71110962 -0.00350464 1.71110962 -0.00350464 3.45678711 -0.00708008 C9.4351802 0.01708865 15.41265809 0.05595163 21.390625 0.1328125 C22.19935059 0.14006348 23.00807617 0.14731445 23.84130859 0.15478516 C33.20311086 0.28765654 42.23785925 1.75937965 49.5859375 7.99609375 C55.76608011 14.6546156 57.94663817 21.08640409 57.828125 30.0078125 C57.82055176 30.80356689 57.81297852 31.59932129 57.80517578 32.41918945 C57.63760149 38.38520128 56.83282999 43.13085837 53.390625 48.1328125 C52.978125 48.76316406 52.565625 49.39351563 52.140625 50.04296875 C47.87527828 55.75029348 42.20743946 59.25741437 35.17675781 60.53515625 C29.93190992 61.28411969 24.673255 61.74726107 19.390625 62.1328125 C18.43514307 65.33640421 18.28678932 68.18368452 18.328125 71.51953125 C18.33585937 72.53982422 18.34359375 73.56011719 18.3515625 74.61132812 C18.36445313 75.67029297 18.37734375 76.72925781 18.390625 77.8203125 C18.41600758 79.92833555 18.43708354 82.03641642 18.453125 84.14453125 C18.46472656 85.07740967 18.47632813 86.01028809 18.48828125 86.97143555 C18.390625 89.1328125 18.390625 89.1328125 17.390625 90.1328125 C15.53692889 90.22018895 13.67994959 90.23979403 11.82421875 90.23046875 C10.69951172 90.22724609 9.57480469 90.22402344 8.41601562 90.22070312 C7.23201172 90.21232422 6.04800781 90.20394531 4.828125 90.1953125 C3.64025391 90.19080078 2.45238281 90.18628906 1.22851562 90.18164062 C-1.71749726 90.16980925 -4.66341181 90.15332537 -7.609375 90.1328125 C-7.76310972 78.97169255 -7.91129136 67.81051412 -8.0523386 56.64922619 C-8.11800441 51.46687464 -8.18559949 46.28456308 -8.25756836 41.10229492 C-8.3269219 36.10327968 -8.39125376 31.10422295 -8.45207024 26.10509682 C-8.47618854 24.19565793 -8.50213147 22.2862412 -8.52990913 20.37685204 C-8.568438 17.70724326 -8.6005411 15.0376301 -8.63110352 12.36791992 C-8.64404953 11.57454224 -8.65699554 10.78116455 -8.67033386 9.96374512 C-8.70152193 6.7395278 -8.63719263 4.21626539 -7.609375 1.1328125 C-4.96361898 -0.19006551 -2.96084721 0.00323741 0 0 Z M17.390625 22.1328125 C17.36353056 24.21607381 17.34418627 26.29943691 17.328125 28.3828125 C17.31652344 29.54296875 17.30492187 30.703125 17.29296875 31.8984375 C17.37280408 34.54258378 17.60418722 36.63107341 18.390625 39.1328125 C24.21663438 39.65215768 24.21663438 39.65215768 29.390625 37.2578125 C32.19184964 32.880899 31.83258749 29.19082762 31.390625 24.1328125 C26.16791631 21.46816521 23.3086747 20.80427073 17.390625 22.1328125 Z " fill="#FDFCFC" transform="translate(132.609375,320.8671875)"/>
<path d="M0 0 C0.97110718 -0.00630432 1.94221436 -0.01260864 2.94274902 -0.019104 C3.98966919 -0.01505554 5.03658936 -0.01100708 6.11523438 -0.00683594 C7.72960388 -0.00970612 7.72960388 -0.00970612 9.37658691 -0.01263428 C11.65291579 -0.01399577 13.92925243 -0.01030186 16.20556641 -0.00195312 C19.69516395 0.00874669 23.18424665 -0.00184986 26.67382812 -0.01464844 C28.88346468 -0.01332684 31.09310092 -0.01076443 33.30273438 -0.00683594 C34.34965454 -0.0108844 35.39657471 -0.01493286 36.47521973 -0.019104 C37.4463269 -0.01279968 38.41743408 -0.00649536 39.41796875 0 C40.27273804 0.00159119 41.12750732 0.00318237 42.00817871 0.00482178 C44.20898438 0.25878906 44.20898438 0.25878906 47.20898438 2.25878906 C47.54956055 4.22998047 47.54956055 4.22998047 47.50195312 6.61035156 C47.48745117 7.88652344 47.48745117 7.88652344 47.47265625 9.18847656 C47.44751953 10.07792969 47.42238281 10.96738281 47.39648438 11.88378906 C47.37618164 13.22957031 47.37618164 13.22957031 47.35546875 14.60253906 C47.32005362 16.82188696 47.27066899 19.04004094 47.20898438 21.25878906 C41.42252793 22.51285044 35.72030322 22.37065819 29.83398438 22.32128906 C28.81175781 22.31677734 27.78953125 22.31226563 26.73632812 22.30761719 C24.22718815 22.29589223 21.71807852 22.27795871 19.20898438 22.25878906 C19.20898438 25.55878906 19.20898438 28.85878906 19.20898438 32.25878906 C20.2838208 32.28851807 20.2838208 32.28851807 21.38037109 32.31884766 C24.61529067 32.41388425 27.84954532 32.52364925 31.08398438 32.63378906 C32.77587891 32.68019531 32.77587891 32.68019531 34.50195312 32.72753906 C36.11650391 32.78554688 36.11650391 32.78554688 37.76367188 32.84472656 C38.75866699 32.87614746 39.75366211 32.90756836 40.77880859 32.93994141 C43.20898438 33.25878906 43.20898438 33.25878906 45.20898438 35.25878906 C45.4519043 37.21411133 45.4519043 37.21411133 45.43945312 39.57519531 C45.43751953 40.42146484 45.43558594 41.26773438 45.43359375 42.13964844 C45.41522461 43.46706055 45.41522461 43.46706055 45.39648438 44.82128906 C45.39583984 45.71009766 45.39519531 46.59890625 45.39453125 47.51464844 C45.34919535 54.11857809 45.34919535 54.11857809 44.20898438 55.25878906 C42.42827191 55.34605129 40.64415297 55.36577947 38.86132812 55.35644531 C37.78173828 55.35322266 36.70214844 55.35 35.58984375 55.34667969 C34.45353516 55.33830078 33.31722656 55.32992187 32.14648438 55.32128906 C31.00630859 55.31677734 29.86613281 55.31226563 28.69140625 55.30761719 C25.86388086 55.29578654 23.03645798 55.27930316 20.20898438 55.25878906 C19.20401585 58.27369463 19.10563135 60.30060598 19.14648438 63.44628906 C19.15550781 64.34734375 19.16453125 65.24839844 19.17382812 66.17675781 C19.18542969 66.86382812 19.19703125 67.55089844 19.20898438 68.25878906 C20.02165771 68.28384521 20.83433105 68.30890137 21.67163086 68.3347168 C25.33009189 68.45028025 28.98826966 68.5731849 32.64648438 68.69628906 C33.92587891 68.73560547 35.20527344 68.77492188 36.5234375 68.81542969 C37.73837891 68.85732422 38.95332031 68.89921875 40.20507812 68.94238281 C41.33099365 68.97904053 42.45690918 69.01569824 43.61694336 69.0534668 C46.20898438 69.25878906 46.20898438 69.25878906 47.20898438 70.25878906 C47.30758569 71.66227642 47.33977374 73.07059383 47.34179688 74.47753906 C47.34373047 75.75177734 47.34373047 75.75177734 47.34570312 77.05175781 C47.34183594 77.94507813 47.33796875 78.83839844 47.33398438 79.75878906 C47.33978516 81.09876953 47.33978516 81.09876953 47.34570312 82.46582031 C47.34441406 83.3153125 47.343125 84.16480469 47.34179688 85.04003906 C47.34066895 85.82443359 47.33954102 86.60882813 47.33837891 87.41699219 C47.20898438 89.25878906 47.20898438 89.25878906 46.20898438 90.25878906 C44.55159994 90.35225822 42.89023794 90.37623883 41.23022461 90.37231445 C40.16920029 90.37223892 39.10817596 90.37216339 38.01499939 90.37208557 C36.28377586 90.36434364 36.28377586 90.36434364 34.51757812 90.35644531 C32.75511497 90.35432289 32.75511497 90.35432289 30.95704651 90.35215759 C27.18683374 90.34653898 23.41667934 90.33398332 19.64648438 90.32128906 C17.0976571 90.31627646 14.54882891 90.31171314 12 90.30761719 C5.73630805 90.29656351 -0.52734962 90.27980728 -6.79101562 90.25878906 C-7.93369036 80.65341644 -7.97200047 71.06749379 -7.99414062 61.41113281 C-7.996968 60.57420961 -7.99979538 59.73728642 -8.00270844 58.87500191 C-8.01758469 54.46362122 -8.02689247 50.05227238 -8.03125 45.64086914 C-8.03678121 41.08437732 -8.06093814 36.52817734 -8.08922195 31.97177792 C-8.10778786 28.46058768 -8.11305023 24.94946952 -8.11458588 21.43823433 C-8.11761635 19.75684541 -8.12565813 18.07545787 -8.13877106 16.39411736 C-8.155738 14.05572336 -8.15397717 11.71806841 -8.14746094 9.37963867 C-8.15667572 8.68410385 -8.1658905 7.98856903 -8.17538452 7.2719574 C-8.1585083 5.34849548 -8.1585083 5.34849548 -7.79101562 2.25878906 C-4.56913397 0.11086796 -3.71017283 0.00690663 0 0 Z " fill="#FCFCFC" transform="translate(209.791015625,320.7412109375)"/>
<path d="M0 0 C1.01877731 -0.00197891 1.01877731 -0.00197891 2.05813599 -0.0039978 C4.26927227 -0.00591656 6.48028283 0.00042053 8.69140625 0.0078125 C9.43711884 0.00869873 10.18283142 0.00958496 10.95114136 0.01049805 C22.41068095 0.02658053 33.82123871 0.29809362 45.25390625 1.1328125 C45.28278771 4.44529437 45.30066424 7.75774417 45.31640625 11.0703125 C45.32478516 12.01583984 45.33316406 12.96136719 45.34179688 13.93554688 C45.34501953 14.83466797 45.34824219 15.73378906 45.3515625 16.66015625 C45.35679932 17.49281006 45.36203613 18.32546387 45.36743164 19.18334961 C45.25390625 21.1328125 45.25390625 21.1328125 44.25390625 22.1328125 C42.25425643 22.22039253 40.25154515 22.23977826 38.25 22.23046875 C37.03505859 22.22724609 35.82011719 22.22402344 34.56835938 22.22070312 C33.28896484 22.21232422 32.00957031 22.20394531 30.69140625 22.1953125 C29.40814453 22.19080078 28.12488281 22.18628906 26.80273438 22.18164062 C23.61974603 22.16980795 20.43684863 22.15332318 17.25390625 22.1328125 C17.25390625 25.7628125 17.25390625 29.3928125 17.25390625 33.1328125 C19.04699219 33.12121094 20.84007812 33.10960937 22.6875 33.09765625 C25.02213438 33.08828021 27.35676988 33.07917981 29.69140625 33.0703125 C30.87541016 33.06193359 32.05941406 33.05355469 33.27929688 33.04492188 C34.40400391 33.04169922 35.52871094 33.03847656 36.6875 33.03515625 C37.72962646 33.02991943 38.77175293 33.02468262 39.84545898 33.01928711 C42.25390625 33.1328125 42.25390625 33.1328125 43.25390625 34.1328125 C43.35271422 35.60933914 43.3846987 37.09048486 43.38671875 38.5703125 C43.38865234 39.91222656 43.38865234 39.91222656 43.390625 41.28125 C43.38675781 42.22226562 43.38289062 43.16328125 43.37890625 44.1328125 C43.38470703 45.54433594 43.38470703 45.54433594 43.390625 46.984375 C43.38933594 47.87898438 43.38804687 48.77359375 43.38671875 49.6953125 C43.38559082 50.52160156 43.38446289 51.34789062 43.38330078 52.19921875 C43.25390625 54.1328125 43.25390625 54.1328125 42.25390625 55.1328125 C40.40021014 55.22018895 38.54323084 55.23979403 36.6875 55.23046875 C35.56279297 55.22724609 34.43808594 55.22402344 33.27929688 55.22070312 C32.09529297 55.21232422 30.91128906 55.20394531 29.69140625 55.1953125 C28.50353516 55.19080078 27.31566406 55.18628906 26.09179688 55.18164062 C23.14581213 55.16980936 20.19985309 55.15187326 17.25390625 55.1328125 C17.25390625 59.7528125 17.25390625 64.3728125 17.25390625 69.1328125 C26.16390625 69.1328125 35.07390625 69.1328125 44.25390625 69.1328125 C46.25390625 73.1328125 46.25390625 73.1328125 45.25390625 90.1328125 C27.43390625 90.1328125 9.61390625 90.1328125 -8.74609375 90.1328125 C-8.74609375 60.7628125 -8.74609375 31.3928125 -8.74609375 1.1328125 C-5.82812729 -0.32617073 -3.25692202 0.00293624 0 0 Z " fill="#FDFCFC" transform="translate(483.74609375,320.8671875)"/>
<path d="M0 0 C7.05375 -0.020625 14.1075 -0.04125 21.375 -0.0625 C24.7150415 -0.07615601 24.7150415 -0.07615601 28.12255859 -0.09008789 C29.88118428 -0.09300762 31.63981064 -0.09555605 33.3984375 -0.09765625 C34.7757605 -0.1053302 34.7757605 -0.1053302 36.1809082 -0.11315918 C37.05368408 -0.11328003 37.92645996 -0.11340088 38.82568359 -0.11352539 C39.58513275 -0.115746 40.34458191 -0.11796661 41.12704468 -0.12025452 C43 0 43 0 45 1 C46.2142021 5.93275612 46.14548025 10.86794958 46.1328125 15.9140625 C46.13376923 16.76495453 46.13472595 17.61584656 46.13571167 18.49252319 C46.13639004 20.28944981 46.13455972 22.08637892 46.13037109 23.88330078 C46.12505792 26.59543561 46.1303071 29.3074018 46.13671875 32.01953125 C46.14292414 36.2825627 46.08484872 40.54195473 46.00863647 44.80419922 C46.00116511 46.7037751 46.08823855 48.60327983 46.19262695 50.5 C46.31181028 57.13508297 44.18080144 60.70753987 39.65234375 65.421875 C37.46124103 67.5845105 35.20532196 69.6684212 32.9375 71.75 C31.78329713 72.8489321 30.63157733 73.95047839 29.48242188 75.0546875 C26.68268849 77.73414527 23.85166309 80.37592248 21 83 C21 80 21 80 22.92773438 77.73168945 C23.80751953 76.86761475 24.68730469 76.00354004 25.59375 75.11328125 C26.05986694 74.65140915 26.52598389 74.18953705 27.00622559 73.71366882 C28.4972629 72.23943048 29.99838872 70.77595912 31.5 69.3125 C32.51240054 68.31514472 33.52412811 67.31710583 34.53515625 66.31835938 C37.01567629 63.87092436 39.50535089 61.43304113 42 59 C40.41131104 58.96241577 40.41131104 58.96241577 38.79052734 58.92407227 C34.84314873 58.82956076 30.89592824 58.72944865 26.94873047 58.62768555 C25.2436901 58.58450154 23.53861108 58.54281553 21.83349609 58.50268555 C19.37585833 58.44458028 16.91841216 58.38100414 14.4609375 58.31640625 C13.70444916 58.29969376 12.94796082 58.28298126 12.16854858 58.26576233 C7.96392278 58.14933459 4.18661209 57.69776868 0 57 C0 38.19 0 19.38 0 0 Z " fill="#D0CFCF" transform="translate(402,137)"/>
<path d="M0 0 C0.33 0 0.66 0 1 0 C1 13.86 1 27.72 1 42 C19.48 42 37.96 42 57 42 C57 28.14 57 14.28 57 0 C57.33 0 57.66 0 58 0 C58 32.01 58 64.02 58 97 C57.67 97 57.34 97 57 97 C55.986084 85.85035321 55.8810593 74.81024858 55.9375 63.625 C55.9684375 54.900625 55.9684375 54.900625 56 46 C28.28 45.01 28.28 45.01 0 44 C0 29.48 0 14.96 0 0 Z " fill="#D8D4D5" transform="translate(343,93)"/>
<path d="M0 0 C0.67877197 0.00008057 1.35754395 0.00016113 2.05688477 0.00024414 C4.12667451 -0.00194046 6.1959298 -0.02008804 8.265625 -0.0390625 C10.21178711 -0.04196289 10.21178711 -0.04196289 12.19726562 -0.04492188 C13.39536865 -0.04903076 14.59347168 -0.05313965 15.82788086 -0.05737305 C18.70117188 0.18554688 18.70117188 0.18554688 20.70117188 2.18554688 C10.80117188 2.18554688 0.90117187 2.18554688 -9.29882812 2.18554688 C-9.29882812 30.56554687 -9.29882812 58.94554687 -9.29882812 88.18554688 C-9.95882813 87.85554688 -10.61882812 87.52554688 -11.29882812 87.18554688 C-11.32195081 75.98981444 -11.33974283 64.79408763 -11.3506403 53.59833622 C-11.35586929 48.40026573 -11.36296722 43.20221151 -11.37426758 38.00415039 C-11.38509589 32.99212419 -11.39110484 27.9801137 -11.39370537 22.96807671 C-11.39555972 21.05142405 -11.39918052 19.1347723 -11.40455818 17.2181263 C-11.41176787 14.54326615 -11.4128191 11.86847174 -11.41235352 9.19360352 C-11.41594879 8.39303528 -11.41954407 7.59246704 -11.42324829 6.76763916 C-11.4068115 -1.90105231 -7.79331656 0.0348781 0 0 Z " fill="#EFECED" transform="translate(383.298828125,320.814453125)"/>
<path d="M0 0 C0.99 0 1.98 0 3 0 C3.02505702 5.42195311 3.04302563 10.84387118 3.05493164 16.26586914 C3.05990455 18.10344023 3.06668525 19.94100749 3.07543945 21.77856445 C3.12703773 32.90254543 2.94346296 43.91138512 2 55 C1.34 55 0.68 55 0 55 C0 36.85 0 18.7 0 0 Z " fill="#C7C0C2" transform="translate(296,240)"/>
<path d="M0 0 C0.66 0 1.32 0 2 0 C2 19.14 2 38.28 2 58 C-0.4993415 54.66754467 -2.3518139 51.79082803 -4 48 C-3.67 47.34 -3.34 46.68 -3 46 C-2.01 46.99 -1.02 47.98 0 49 C0 32.83 0 16.66 0 0 Z " fill="#EFEBEA" transform="translate(332,325)"/>
<path d="M0 0 C19.14 0 38.28 0 58 0 C58 0.99 58 1.98 58 3 C51.82934861 3.02495131 45.6587274 3.04297757 39.48803711 3.05493164 C37.3942819 3.05992175 35.3005301 3.06671621 33.20678711 3.07543945 C10.89861344 3.16597155 10.89861344 3.16597155 0 2 C0 1.34 0 0.68 0 0 Z " fill="#C0BAB9" transform="translate(343,192)"/>
<path d="M0 0 C0.99 1.32 1.98 2.64 3 4 C2.67 4.66 2.34 5.32 2 6 C1.67 5.67 1.34 5.34 1 5 C1 22.16 1 39.32 1 57 C0.34 56.67 -0.32 56.34 -1 56 C-1.02528903 48.34619856 -1.04284104 40.69240783 -1.05493164 33.03857422 C-1.0599703 30.43310137 -1.0668013 27.82763137 -1.07543945 25.22216797 C-1.08752544 21.48404236 -1.09323288 17.74595403 -1.09765625 14.0078125 C-1.10281754 12.83695099 -1.10797882 11.66608948 -1.11329651 10.45974731 C-1.11337204 9.37877777 -1.11344757 8.29780823 -1.11352539 7.18408203 C-1.115746 6.22921906 -1.11796661 5.27435608 -1.12025452 4.29055786 C-1 2 -1 2 0 0 Z " fill="#EBE7E6" transform="translate(395,351)"/>
<path d="M0 0 C0.66 0.33 1.32 0.66 2 1 C2.02888514 4.14581423 2.04675923 7.29159469 2.0625 10.4375 C2.07087891 11.33533203 2.07925781 12.23316406 2.08789062 13.15820312 C2.09272461 14.43920898 2.09272461 14.43920898 2.09765625 15.74609375 C2.10551147 16.93223267 2.10551147 16.93223267 2.11352539 18.14233398 C2 20 2 20 1 21 C-0.74590379 21.07514111 -2.49478964 21.08316228 -4.2421875 21.0625 C-5.84126953 21.05089844 -5.84126953 21.05089844 -7.47265625 21.0390625 C-9.73307395 21.01311052 -11.99349063 20.98706947 -14.25390625 20.9609375 C-15.32253906 20.95320313 -16.39117187 20.94546875 -17.4921875 20.9375 C-18.47558105 20.92589844 -19.45897461 20.91429687 -20.47216797 20.90234375 C-23.12666993 20.88701806 -23.12666993 20.88701806 -26 22 C-26 21.01 -26 20.02 -26 19 C-22.04168191 18.97107143 -18.08339083 18.95322573 -14.125 18.9375 C-12.43310547 18.92493164 -12.43310547 18.92493164 -10.70703125 18.91210938 C-9.63066406 18.90888672 -8.55429688 18.90566406 -7.4453125 18.90234375 C-6.45031738 18.89710693 -5.45532227 18.89187012 -4.43017578 18.88647461 C-2 19 -2 19 0 20 C0 13.4 0 6.8 0 0 Z " fill="#E5DDDB" transform="translate(253,355)"/>
<path d="M0 0 C38.00823978 -0.26731612 38.00823978 -0.26731612 47 3 C45.02 3.99 45.02 3.99 43 5 C43 4.34 43 3.68 43 3 C42.00226563 3.01160156 41.00453125 3.02320313 39.9765625 3.03515625 C26.30006075 3.1389381 12.6616382 2.5968831 -1 2 C-0.67 1.34 -0.34 0.68 0 0 Z " fill="#EFEDEC" transform="translate(127,321)"/>
<path d="M0 0 C2.64465038 3.1254959 3.84414715 6.08788267 5 10 C4.01 9.01 3.02 8.02 2 7 C1.67 21.52 1.34 36.04 1 51 C0.67 51 0.34 51 0 51 C-0.16781887 43.89769217 -0.32778364 36.79523923 -0.48217773 29.69262695 C-0.53568721 27.27429152 -0.59102313 24.8559958 -0.64819336 22.43774414 C-0.72985542 18.97030201 -0.8050387 15.50277206 -0.87890625 12.03515625 C-0.91945885 10.40236473 -0.91945885 10.40236473 -0.96083069 8.73658752 C-0.98092697 7.73562546 -1.00102325 6.73466339 -1.02172852 5.70336914 C-1.04171402 4.81734512 -1.06169952 3.93132111 -1.08229065 3.01844788 C-1 1 -1 1 0 0 Z " fill="#D7D1CD" transform="translate(292,350)"/>
<path d="M0 0 C1.32 0 2.64 0 4 0 C4 0.66 4 1.32 4 2 C4.66 2.33 5.32 2.66 6 3 C-10.17 3 -26.34 3 -43 3 C-43 2.67 -43 2.34 -43 2 C-41.73293213 1.97494385 -40.46586426 1.9498877 -39.16040039 1.92407227 C-34.47702221 1.83018004 -29.7937987 1.72991565 -25.1105957 1.62768555 C-23.08035896 1.58426759 -21.05008408 1.54259774 -19.01977539 1.50268555 C-16.10811849 1.44514854 -13.19665486 1.38140722 -10.28515625 1.31640625 C-8.91485008 1.29133751 -8.91485008 1.29133751 -7.51686096 1.26576233 C-3.43210684 1.5769315 -3.43210684 1.5769315 0 0 Z " fill="#D9D3D0" transform="translate(391,236)"/>
<path d="M0 0 C7.92 0 15.84 0 24 0 C24 0.33 24 0.66 24 1 C17.74603294 1.75970099 11.64802602 2.08254448 5.34765625 1.9375 C2.84446896 1.89025002 2.84446896 1.89025002 0 3 C0 2.01 0 1.02 0 0 Z " fill="#EDEAE9" transform="translate(227,374)"/>
<path d="M0 0 C0.33 0 0.66 0 1 0 C1.06058594 0.96421875 1.12117187 1.9284375 1.18359375 2.921875 C1.26738281 4.18515625 1.35117188 5.4484375 1.4375 6.75 C1.51871094 8.00296875 1.59992188 9.2559375 1.68359375 10.546875 C1.98103233 14.36413298 1.98103233 14.36413298 3 18 C3.99 18.66 4.98 19.32 6 20 C4.02 20 2.04 20 0 20 C0 13.4 0 6.8 0 0 Z " fill="#E5E3E2" transform="translate(149,342)"/>
<path d="M0 0 C2 2 2 2 2.1953125 4.1640625 C2.17210937 4.97617187 2.14890625 5.78828125 2.125 6.625 C2.10695313 7.44226563 2.08890625 8.25953125 2.0703125 9.1015625 C2.03550781 10.04128906 2.03550781 10.04128906 2 11 C-0.79233071 8.44722581 -1.48967606 6.77639718 -2 3 C-1.34 3 -0.68 3 0 3 C0 2.01 0 1.02 0 0 Z " fill="#D1C8C4" transform="translate(435,372)"/>
<path d="M0 0 C0 4.29 0 8.58 0 13 C-2.94586829 8.58119757 -3.0985616 6.32232661 -3 1 C-1 0 -1 0 0 0 Z " fill="#E4CAD7" transform="translate(299,267)"/>
<path d="M0 0 C1.5 1.375 1.5 1.375 3 3 C3 3.66 3 4.32 3 5 C3.99 5 4.98 5 6 5 C6 7.31 6 9.62 6 12 C3.25207517 8.59780735 0 4.51535412 0 0 Z " fill="#D3C2C1" transform="translate(328,371)"/>
<path d="M0 0 C0.99 1.32 1.98 2.64 3 4 C2.67 4.66 2.34 5.32 2 6 C1.67 5.67 1.34 5.34 1 5 C0.67 7.97 0.34 10.94 0 14 C-0.33 14 -0.66 14 -1 14 C-1.02694851 12.04174127 -1.04637218 10.08337774 -1.0625 8.125 C-1.07410156 7.03445313 -1.08570313 5.94390625 -1.09765625 4.8203125 C-1 2 -1 2 0 0 Z " fill="#DFD5D4" transform="translate(395,351)"/>
<path d="M0 0 C0 0.99 0 1.98 0 3 C-3.3 3 -6.6 3 -10 3 C-9.67 2.34 -9.34 1.68 -9 1 C-5.98003217 0.45091494 -3.07380605 0 0 0 Z " fill="#BBB8B7" transform="translate(401,192)"/>
<path d="M0 0 C1.32 0 2.64 0 4 0 C4 0.66 4 1.32 4 2 C4.66 2.33 5.32 2.66 6 3 C3.36 3 0.72 3 -2 3 C-1.34 2.01 -0.68 1.02 0 0 Z " fill="#DED9D7" transform="translate(391,236)"/>
</svg>
